HIERARCHY
ROOT Hips
{
	OFFSET 0.00000 0.00000 0.00000
	CHANNELS 6 Xposition Yposition Zposition Zrotation Yrotation Xrotation 
	JOINT LHipJoint
	{
		OFFSET 0 0 0
		CHANNELS 3 Zrotation Yrotation Xrotation
		JOINT LeftUpLeg
		{
			OFFSET 1.92384 -1.64427 0.83032
			CHANNELS 3 Zrotation Yrotation Xrotation
			JOINT LeftLeg
			{
				OFFSET 2.52872 -6.94761 0.00000
				CHANNELS 3 Zrotation Yrotation Xrotation
				JOINT LeftFoot
				{
					OFFSET 2.51827 -6.91890 0.00000
					CHANNELS 3 Zrotation Yrotation Xrotation
					JOINT LeftToeBase
					{
						OFFSET 0.22757 -0.62524 2.06528
						CHANNELS 3 Zrotation Yrotation Xrotation
						End Site
						{
							OFFSET 0.00000 -0.00000 1.08218
						}
					}
				}
			}
		}
	}
	JOINT RHipJoint
	{
		OFFSET 0 0 0
		CHANNELS 3 Zrotation Yrotation Xrotation
		JOINT RightUpLeg
		{
			OFFSET -2.09517 -1.64427 0.83032
			CHANNELS 3 Zrotation Yrotation Xrotation
			JOINT RightLeg
			{
				OFFSET -2.55173 -7.01082 0.00000
				CHANNELS 3 Zrotation Yrotation Xrotation
				JOINT RightFoot
				{
					OFFSET -2.50265 -6.87598 0.00000
					CHANNELS 3 Zrotation Yrotation Xrotation
					JOINT RightToeBase
					{
						OFFSET -0.22612 -0.62126 1.98677
						CHANNELS 3 Zrotation Yrotation Xrotation
						End Site
						{
							OFFSET -0.00000 -0.00000 1.04433
						}
					}
				}
			}
		}
	}
	JOINT LowerBack
	{
		OFFSET 0 0 0
		CHANNELS 3 Zrotation Yrotation Xrotation
		JOINT Spine
		{
			OFFSET 0.02839 1.68926 0.31690
			CHANNELS 3 Zrotation Yrotation Xrotation
			JOINT Spine1
			{
				OFFSET -0.01522 1.70183 0.21192
				CHANNELS 3 Zrotation Yrotation Xrotation
				JOINT Neck
				{
					OFFSET 0 0 0
					CHANNELS 3 Zrotation Yrotation Xrotation
					JOINT Neck1
					{
						OFFSET -0.04523 1.88988 0.10630
						CHANNELS 3 Zrotation Yrotation Xrotation
						JOINT Head
						{
							OFFSET 0.05172 1.78070 -0.56858
							CHANNELS 3 Zrotation Yrotation Xrotation
							End Site
							{
								OFFSET 0.01532 1.90392 -0.20434
							}
						}
					}
				}
				JOINT LeftShoulder
				{
					OFFSET 0 0 0
					CHANNELS 3 Zrotation Yrotation Xrotation
					JOINT LeftArm
					{
						OFFSET 3.25522 0.75486 0.22086
						CHANNELS 3 Zrotation Yrotation Xrotation
						JOINT LeftForeArm
						{
							OFFSET 4.85645 -0.00000 0.00000
							CHANNELS 3 Zrotation Yrotation Xrotation
							JOINT LeftHand
							{
								OFFSET 2.79874 -0.00000 0.00000
								CHANNELS 3 Zrotation Yrotation Xrotation
								JOINT LeftFingerBase
								{
									OFFSET 0 0 0
									CHANNELS 3 Zrotation Yrotation Xrotation
									JOINT LeftHandIndex1
									{
										OFFSET 0.57340 -0.00000 0.00000
										CHANNELS 3 Zrotation Yrotation Xrotation
										End Site
										{
											OFFSET 0.46229 -0.00000 0.00000
										}
									}
								}
								JOINT LThumb
								{
									OFFSET 0 0 0
									CHANNELS 3 Zrotation Yrotation Xrotation
									End Site
									{
										OFFSET 0.46935 -0.00000 0.46935
									}
								}
							}
						}
					}
				}
				JOINT RightShoulder
				{
					OFFSET 0 0 0
					CHANNELS 3 Zrotation Yrotation Xrotation
					JOINT RightArm
					{
						OFFSET -3.29079 0.52751 0.36356
						CHANNELS 3 Zrotation Yrotation Xrotation
						JOINT RightForeArm
						{
							OFFSET -4.67018 -0.00000 0.00000
							CHANNELS 3 Zrotation Yrotation Xrotation
							JOINT RightHand
							{
								OFFSET -2.65534 -0.00000 0.00000
								CHANNELS 3 Zrotation Yrotation Xrotation
								JOINT RightFingerBase
								{
									OFFSET 0 0 0
									CHANNELS 3 Zrotation Yrotation Xrotation
									JOINT RightHandIndex1
									{
										OFFSET -0.59407 -0.00000 0.00000
										CHANNELS 3 Zrotation Yrotation Xrotation
										End Site
										{
											OFFSET -0.47895 -0.00000 0.00000
										}
									}
								}
								JOINT RThumb
								{
									OFFSET 0 0 0
									CHANNELS 3 Zrotation Yrotation Xrotation
									End Site
									{
										OFFSET -0.48627 -0.00000 0.48627
									}
								}
							}
						}
					}
				}
			}
		}
	}
}
MOTION
Frames: 10
Frame Time: 0.0181818
0.00 0.00 0.00 208.2080 -61.3058 -133.4310 0.0000 0.0000 0.0000 0.2422 -12.5431 -131.0414 32.4464 15.7809 129.0617 3.4017 -3.8872 -34.0646 2.4117 -9.6755 -27.9323 0.0000 0.0000 0.0000 26.3629 23.0079 -129.8843 -28.6705 -18.0926 116.1530 1.8978 31.5108 -11.0043 -1.3145 -7.2621 20.4943 -2.2553 -0.3926 6.2685 -4.6294 -1.5100 -6.7178 -3.4680 -0.8974 -10.8156 1.0525 2.5826 -23.7803 -7.7263 5.2700 29.8629 -2.3858 1.0309 14.5832 -0.0000 -0.0000 0.0000 -56.5819 -62.8407 17.2166 8.7975 -14.8372 -1.1477 -0.0000 0.0000 -4.8555 30.9487 46.7043 23.5781 -7.1250 0.0000 -0.0000 4.0878 -9.1571 -176.6059 -0.0000 -0.0000 0.0000 66.1104 51.8451 57.9989 -57.4637 55.5953 -32.2394 0.0000 0.0000 19.2623 3.1482 -15.1912 -0.8257 7.1250 -0.0000 -0.0000 -29.4643 46.6954 178.6520
0.00 0.00 0.00 209.7330 -61.1955 -134.3240 0.0000 0.0000 0.0000 0.7619 -12.1046 -131.6581 32.1099 16.0378 127.8343 3.4695 -2.1318 -34.7980 2.1880 -9.2472 -26.5716 0.0000 0.0000 0.0000 27.6897 24.5046 -129.1654 -27.9779 -18.4000 113.9412 1.8997 31.2614 -10.6675 -1.6158 -8.0152 22.7604 -2.4543 -0.9564 6.5057 -4.6745 -2.3543 -6.7677 -3.2688 -1.3072 -11.0540 1.7412 3.0894 -24.2312 -7.6757 5.7288 29.0590 -2.3638 1.3414 14.3689 -0.0000 -0.0000 0.0000 -50.4420 -62.9271 10.4990 8.5120 -14.3794 -1.0757 -0.0000 0.0000 -3.6394 30.7035 46.5177 23.3104 -7.1250 0.0000 -0.0000 4.1459 -9.4163 -176.5790 -0.0000 -0.0000 0.0000 64.1368 41.9273 55.8916 -82.4888 59.7857 -53.4998 0.0000 0.0000 25.2819 6.4653 -13.5223 -1.5178 7.1250 -0.0000 -0.0000 -33.9584 48.4551 176.7559
0.00 0.00 0.00 211.0950 -61.1063 -135.1530 0.0000 0.0000 0.0000 1.6887 -11.0960 -131.8187 31.6299 16.3848 126.1150 3.5957 -2.2691 -35.4154 1.9838 -8.8322 -25.2718 0.0000 0.0000 0.0000 29.2227 26.0665 -127.9922 -27.1121 -18.7413 111.2231 1.8532 30.8847 -10.5162 -1.9212 -8.7001 24.8615 -2.8518 -1.3367 6.9967 -4.8615 -2.9925 -6.7097 -3.1346 -1.6025 -11.3124 2.7840 3.4309 -24.6010 -7.4941 5.7593 27.9918 -2.4236 1.5430 14.0050 -0.0000 -0.0000 0.0000 -44.1221 -63.4601 2.9892 7.9407 -13.4566 -0.9383 -0.0000 0.0000 -1.0150 29.2722 45.8919 21.9238 -7.1250 0.0000 -0.0000 4.6263 -10.4828 -176.2801 -0.0000 -0.0000 0.0000 63.7384 30.4828 53.7248 -104.4158 59.2000 -72.4509 0.0000 0.0000 27.9188 8.5442 -13.5132 -2.0106 7.1250 -0.0000 -0.0000 -36.2323 48.6532 176.2806
0.00 0.00 0.00 211.7990 -61.1702 -133.7480 0.0000 0.0000 0.0000 5.7095 -8.9266 -129.2790 27.9136 18.4269 113.7376 4.0590 -4.4452 -37.2681 2.0562 -8.9823 -25.7398 0.0000 0.0000 0.0000 34.2885 29.6964 -122.1147 -22.2516 -19.8780 96.5960 2.3772 31.6436 -7.5450 -3.3573 -11.2521 33.1348 -2.6995 -2.7943 7.8104 -5.5014 -5.1518 -6.3746 -3.5080 -2.7231 -11.6087 5.6310 4.8482 -25.6136 -6.6620 6.3345 23.4106 -2.3419 2.3490 12.4150 0.0000 0.0000 0.0000 -21.7589 -60.5399 -22.2038 6.7618 -11.5266 -0.6833 -0.0000 -0.0000 10.8869 10.9040 38.6118 6.8550 -7.1250 0.0000 -0.0000 13.2455 -22.4346 -172.6179 0.0000 0.0000 0.0000 67.7489 -0.8674 58.5955 -116.6105 57.1475 -82.8247 0.0000 0.0000 20.3197 -6.9841 -12.0325 1.4629 7.1250 -0.0000 -0.0000 -20.3960 48.5701 178.1321
0.00 0.00 0.00 207.4360 -62.6541 -129.1140 0.0000 0.0000 0.0000 5.5822 -11.5470 -124.4762 23.6112 19.6844 100.6119 3.8424 -3.8738 -36.3140 1.4354 -7.5750 -21.4305 0.0000 0.0000 0.0000 35.3373 29.2339 -118.1318 -18.3655 -19.9358 85.2161 2.3578 30.8906 -6.4835 -2.8384 -10.4288 30.3768 -2.6993 -2.5187 7.4052 -4.5620 -4.5777 -6.4899 -2.6075 -2.3686 -11.3581 4.5957 4.0779 -24.5884 -6.3052 5.5741 23.2881 -2.1804 1.9846 12.0683 -0.0000 -0.0000 0.0000 -24.5776 -48.9726 5.9548 13.6861 -22.2842 -2.7080 -0.0000 0.0000 -9.2931 -1.8985 31.5361 -0.9932 -7.1250 0.0000 -0.0000 22.2770 -31.6949 -172.2236 -0.0000 -0.0000 0.0000 71.4066 0.3351 64.7371 -100.4100 59.5865 -69.0028 0.0000 0.0000 25.2816 -24.5309 -14.8538 6.6729 7.1250 -0.0000 -0.0000 -2.7484 43.7874 -179.9177
0.00 0.00 0.00 203.3440 -64.7670 -124.5800 0.0000 0.0000 0.0000 4.3603 -14.2775 -121.0400 20.2150 19.9989 90.6285 3.6262 -4.7671 -35.0656 0.9625 -6.2466 -17.5016 0.0000 0.0000 0.0000 33.0416 28.2929 -117.2936 -16.0384 -19.6195 78.3461 2.0316 28.6999 -5.8037 -3.7387 -11.8043 35.0431 -0.6994 -2.5352 7.2541 -3.8216 -4.1535 -6.1053 -3.0115 -2.2471 -10.8848 4.0125 3.6980 -24.3644 -6.2014 5.2438 23.6748 -2.1108 1.7925 12.1341 0.0000 0.0000 0.0000 -30.8745 -31.2286 30.5123 40.6342 -48.4412 -18.9124 -0.0000 0.0000 -15.3146 -2.2311 33.1885 -1.2217 -7.1250 0.0000 -0.0000 22.1040 -30.2179 -171.4413 0.0000 0.0000 0.0000 72.0162 3.6388 66.7437 -96.3413 59.8475 -65.4889 0.0000 0.0000 24.7147 -24.5890 -14.4317 6.5063 7.1250 -0.0000 -0.0000 -2.6696 44.2358 -179.9496
0.00 0.00 0.00 202.8090 -65.2257 -123.6030 0.0000 0.0000 0.0000 2.6195 -14.0777 -119.1581 18.4570 19.9428 85.4843 3.4746 -6.3991 -34.0447 0.7546 -5.5482 -15.4791 0.0000 0.0000 0.0000 32.2268 28.6747 -115.6282 -14.5936 -19.2843 74.0093 1.9177 27.5590 -4.9864 -3.5418 -11.5243 34.0692 -1.0509 -1.9459 6.1752 -3.2383 -3.2572 -6.0526 -2.3716 -1.7444 -10.0584 3.8353 3.5055 -24.3353 -5.9375 4.9797 24.6631 -2.0449 1.6709 12.4873 -0.0000 0.0000 0.0000 -38.1301 -19.2150 40.1914 72.8557 -58.8597 -45.2094 -0.0000 0.0000 -16.0182 7.4622 37.1955 4.5274 -7.1250 0.0000 -0.0000 15.3356 -24.5352 -172.1451 -0.0000 0.0000 0.0000 72.2679 5.2017 67.1362 -91.3854 59.9927 -61.1998 0.0000 0.0000 24.6168 -25.1636 -15.1485 6.9990 7.1250 -0.0000 -0.0000 -2.1919 43.3802 -179.9123
0.00 0.00 0.00 201.6730 -65.5945 -122.3490 0.0000 0.0000 0.0000 1.5971 -14.6206 -117.9245 17.4100 19.8384 82.4076 3.3957 -6.9869 -33.5657 0.6739 -5.2492 -14.6208 0.0000 0.0000 0.0000 31.1648 28.4456 -115.2240 -13.9077 -19.0858 71.9225 1.8211 26.8570 -4.7850 -3.3923 -11.3046 33.3142 -0.6726 -1.6012 5.5280 -3.0629 -2.7082 -6.1767 -2.4950 -1.4942 -9.7922 3.7442 3.4150 -24.3756 -5.8861 4.8792 25.2053 -2.0378 1.6111 12.7016 -0.0000 0.0000 0.0000 -42.3077 -10.4454 46.7274 94.1942 -59.9334 -63.6314 -0.0000 0.0000 -13.6677 16.7811 39.2539 10.8029 -7.1250 0.0000 -0.0000 9.9015 -20.4358 -174.0912 -0.0000 0.0000 0.0000 72.0898 5.6587 67.2417 -88.7695 59.9943 -58.9344 0.0000 0.0000 24.3020 -25.3536 -15.6937 7.3039 7.1250 -0.0000 -0.0000 -2.0649 42.7615 -179.8859
0.00 0.00 0.00 198.0310 -67.7181 -118.9140 0.0000 0.0000 0.0000 -0.5967 -16.9435 -114.0856 14.5450 19.2711 73.8621 3.2704 -8.2250 -32.7936 0.4726 -4.4092 -12.2309 0.0000 0.0000 0.0000 25.7544 27.6350 -114.0264 -12.0769 -18.4229 66.2322 0.8896 23.1262 -8.9838 -2.3722 -9.6018 27.6966 0.7601 -0.9507 4.5894 -1.8302 -1.5464 -6.7130 -2.1605 -0.9689 -9.7660 2.6126 2.7297 -24.6047 -6.6417 4.5849 26.0694 -2.2153 1.2304 13.0804 0.0000 0.0000 0.0000 -54.0067 10.8350 63.8184 107.2830 -58.8407 -74.9092 -0.0000 -0.0000 3.8230 29.3662 38.3254 19.2360 -7.1250 0.0000 -0.0000 2.8255 -17.8888 -178.1768 0.0000 0.0000 0.0000 71.5787 7.8212 68.8444 -79.4621 59.5762 -50.8869 0.0000 0.0000 24.1439 -23.0657 -13.3931 5.6332 7.1250 -0.0000 -0.0000 -4.0580 45.5476 179.9451
0.00 0.00 0.00 189.4570 -72.9850 -112.2560 0.0000 0.0000 0.0000 -4.9363 -19.8170 -108.7737 11.4938 18.1684 64.3751 1.6148 -16.5074 -23.9531 0.2393 -3.1484 -8.6922 0.0000 0.0000 0.0000 17.5964 25.1696 -108.8398 -8.8647 -16.7199 55.6211 -0.9380 13.2599 -18.3724 -1.1999 -6.9500 19.5674 2.0832 -0.7035 4.2252 -0.6118 -0.9732 -7.0246 -1.6824 -0.7305 -9.8661 -0.0455 0.9494 -24.4879 -6.5876 3.0830 28.4157 -2.0907 0.2207 13.9158 0.0000 -0.0000 0.0000 -69.1809 12.8438 62.1961 89.3190 -59.9982 -59.4103 -0.0000 -0.0000 6.9438 32.9327 38.6408 22.0219 -7.1250 0.0000 -0.0000 1.0232 -16.4239 -179.3078 0.0000 -0.0000 0.0000 74.6699 11.7720 72.4068 -59.1229 56.0717 -33.6123 0.0000 0.0000 24.9973 -23.0667 -16.4875 6.8913 7.1250 -0.0000 -0.0000 -4.1486 42.2396 -179.7169
